<svg xmlns="http://www.w3.org/2000/svg" version="1.1" xmlns:xlink="http://www.w3.org/1999/xlink" xmlns:svgjs="http://svgjs.dev/svgjs" width="300" height="300" viewBox="0 0 350 300"><g transform="matrix(1,0,0,1,3.410605131648481e-13,0)"><svg viewBox="0 0 320 360" data-background-color="#ffffff" preserveAspectRatio="xMidYMid meet" height="300" width="300" xmlns="http://www.w3.org/2000/svg" xmlns:xlink="http://www.w3.org/1999/xlink"><g id="tight-bounds" transform="matrix(1,0,0,1,-5.684341886080802e-14,0)"><svg viewBox="0 0 320 360" height="360" width="320"><g><svg></svg></g><g><svg viewBox="0 0 320 360" height="360" width="320"><g><path d="M85.508 32.884c0-1.117 0.558-2.233 1.675-2.233 1.117 0 2.233 0.558 2.234 2.233 0.558 0 1.675 0 2.233-0.558 2.233 0 4.467-0.558 6.141 0 1.675 0.558 2.792 0.558 4.467 1.117 1.675 0.558 2.792 0 3.908-0.559 2.233-0.558 3.908-1.675 6.141-2.233 1.117-0.558 1.675-0.558 2.792-0.558 1.117-0.558 2.233-0.558 3.908-1.117 2.792-0.558 5.583-1.117 7.817-2.233 2.233-1.117 4.467-1.117 6.699-1.675 1.117 0 1.675-0.558 2.792-1.117 0.558 0 0.558-0.558 1.116-1.116 1.117-0.558 1.675-1.117 2.792-0.559 0.558 0.558 1.675 0.558 2.233 0h0.559c3.35 0 6.7-0.558 10.608 0 0.558 0 1.117 0 1.116 0 1.675-1.117 3.908-1.117 6.142-1.116 0.558 0 1.675 0 2.233 0h0.558c2.233 0 4.467 0 6.142 0.558 1.675 0 2.792 0.558 4.466 1.117 1.675 0 2.792 0 4.467 0.558 1.117 0 2.233 0 3.35 0 0.558 0 1.117 0 1.116 0 2.233 0.558 4.467 0.558 6.7 0.558 1.675 0.558 3.35 1.117 5.583 1.117 0.558 0 1.117 0 1.675 0 0.558 0 1.117 0.558 1.675 0.558l0.558 0.559c2.233 0 3.908 1.117 6.142 1.116 0.558 0 1.675 0 2.233 0.559 1.675 1.117 3.908 1.675 6.141 1.675 1.117 0 1.675 0.558 2.234 1.116 1.675 0.558 2.792 1.117 4.466 1.675 1.117 0.558 2.233 0 3.35 0.558 1.675 0.558 3.908 1.117 5.583 2.792 1.117 1.117 2.233 1.117 3.908 2.233 0.558 0 1.117 0.558 1.675 1.117 1.675 1.117 3.35 2.233 5.025 2.791 0.558 0 1.117 0.558 1.675 0.559 1.675 1.117 3.35 2.792 5.583 3.908 1.117 0.558 1.675 1.117 2.792 1.675h0.558c1.675 1.675 3.908 2.792 5.583 4.466 1.675 1.675 2.792 2.792 5.025 3.909 0 0 0 0 0 0.558 0.558 1.117 1.117 1.675 2.233 2.233 1.117 0.558 1.675 1.117 2.234 1.675 1.675 1.117 3.35 2.233 4.466 3.35 0.558 0.558 1.117 1.117 2.233 2.233 0.558 0.558 1.117 1.117 1.675 1.117 2.233 0.558 3.35 2.233 5.025 3.908 1.117 1.117 2.792 2.792 3.908 3.908 0.558 0.558 1.117 1.675 1.675 2.792 1.117 3.35 2.792 6.7 4.467 9.491 0 0 0 0.558 0.558 1.117v0.558c1.117 1.117 1.675 2.792 2.792 3.908 0.558 0.558 0.558 1.117 1.116 1.675 1.117 1.675 1.675 3.908 2.792 5.583 1.675 2.792 2.792 5.583 3.908 8.375v0.558c0.558 1.117 1.117 2.233 1.675 3.908 0 1.117 1.117 2.233 1.675 3.909 0.558 2.792 2.233 5.583 2.791 8.933 0 0.558 0.558 1.117 0.559 2.233 0.558 1.675 1.117 3.35 1.675 5.025 0 0.558 0.558 1.117 1.116 1.675 1.117 1.117 1.117 2.233 1.117 3.35-0.558 2.233 0 4.467 0.558 6.699 0 0.558 0 1.117 0 2.234 0.558 2.233 1.117 5.025 1.117 7.258 0 0.558 0 1.675 0 2.233 0 1.675 0.558 3.35 1.675 5.025 0 0.558 0.558 0.558 0.558 0.558 0.558 0.558 1.117 1.675 1.675 2.233 0.558 0.558 0.558 0.558 1.117 1.117 1.117 1.117 1.675 2.233 1.675 3.908 0 0.558-0.558 1.675-0.559 2.233 0 0.558 0 1.675 0.559 2.234 0.558 0.558 0.558 1.117 0.558 1.675 0 0.558-0.558 1.117-1.117 1.116v0c-0.558 1.675-2.792 2.233-3.35 3.908-0.558 2.233-1.117 4.467-1.674 6.7-0.558 1.675-0.558 2.792-0.559 4.467 0 1.675-0.558 2.792-0.558 4.466-0.558 2.233-1.117 4.467-1.675 6.7 0 1.117-0.558 2.233-0.558 3.35 0.558 0.558 1.117 1.117 1.675 1.116 1.117 1.117 2.233 2.233 3.349 3.35 0.558 0.558 0.558 1.117 0 1.117-0.558 0.558-1.117 0.558-1.674 0.558-0.558-0.558-1.675-1.117-2.234-1.116-0.558-0.558-1.675-1.117-2.791-0.559 0 1.117-0.558 2.233-0.559 2.792-0.558 1.117-1.117 2.792-1.116 3.908-0.558 2.233-1.675 3.908-2.233 6.142-1.117 2.792-2.233 5.025-3.35 7.258-0.558 1.117-1.117 2.233-1.675 3.35v0c0 1.675-1.675 3.35-2.234 5.024-1.117 2.233-2.233 4.467-3.349 7.258-0.558 1.117-1.117 2.233-1.675 2.792-1.117 2.792-2.233 5.025-3.909 7.258-1.117 1.675-2.233 2.792-3.349 3.35-1.117 1.117-2.233 2.233-3.35 3.35-0.558 0.558-1.117 1.117-1.675 1.675-0.558 0.558-0.558 0.558-1.117 1.116-1.117 1.675-2.792 2.792-3.908 4.467-1.117 1.117-1.675 2.233-3.35 3.35-1.117 1.117-2.233 2.792-3.908 3.35-0.558 0.558-1.117 1.675-1.675 2.233-0.558 0.558-1.117 1.675-1.675 2.233 0 1.117 0.558 2.233 0.558 2.792 0 1.675-1.675 2.233-2.791 1.116-1.675-1.117-1.675-1.117-3.35 0-1.675 1.117-3.35 2.792-5.583 3.35-0.558 0-0.558 0.558-1.117 0.559-1.117 0.558-1.675 1.675-2.792 2.233-1.117 1.117-2.792 1.675-3.908 2.791-0.558 0.558-1.117 0.558-1.675 1.117-1.675 1.117-3.35 1.675-5.024 3.35-0.558 0.558-1.117 0.558-1.675 1.117 0 0.558 0 0.558 0 1.116 0 1.117-1.117 2.233-2.792 1.675-1.675-0.558-2.792 0-4.466 0-1.675 0.558-3.35 1.675-5.025 2.233-0.558 0-1.117 0.558-1.675 1.117-1.675 1.117-3.35 1.675-5.025 2.233-1.117 0-2.233 1.117-3.35 1.117-0.558 0-1.117 0.558-1.675 0.558h-0.558c-2.233 1.675-4.467 2.792-6.7 4.467-0.558 0-0.558 0.558-1.117 1.116-0.558 1.117-1.117 1.675-2.233 1.675-2.792 0-3.908 2.233-3.35 4.467 0 0.558 0.558 1.117 0.559 1.675 0.558 1.117 0 2.233-0.559 2.791-0.558 0.558-2.233 0.558-2.791-0.558-1.117-1.117-1.675-2.233-2.234-3.908-0.558-1.117-1.675-2.233-2.791-2.792-1.117-0.558-2.233-0.558-3.35 0-0.558 0-0.558 0.558-1.117 0.558-1.117 1.117-2.792 1.675-4.466 1.117-0.558 0-1.675 0-1.675 0.558-0.558 0.558-0.558 1.675 0 2.234 1.117 1.117 0.558 2.233 0.558 3.908 0 2.233-1.675 3.35-3.908 2.233-0.558-0.558-1.117-0.558-1.675-1.117-0.558 0-0.558-0.558-0.558-1.116-0.558-0.558-0.558-1.675-1.117-2.792-1.117 0.558-2.233 0.558-3.35 1.117-0.558 0-1.117 0.558-1.675 0.558-1.675 0-2.233 0-2.791-1.675-0.558-1.675-1.675-1.675-2.792-2.233-2.233-0.558-5.025-0.558-7.258-1.675h-0.558c-2.233-1.675-4.467-1.675-7.258-1.675-1.675 0-3.35 0.558-5.025 0.558-1.675 0-2.792 0.558-3.908 1.675-0.558 0.558-1.117 1.117-1.675 1.117-0.558-0.558-0.558-1.117-1.117-1.675v-0.558c0-0.558-0.558-1.117-1.116-0.559-1.117 0.558-2.233-0.558-3.35-1.116-0.558-0.558-1.675-1.675-1.675-2.792-0.558-0.558-1.117-1.117-1.675-1.116-1.117 0-2.792-0.558-3.908-0.559-0.558 0-1.117 0-1.117-0.558-0.558-0.558-1.117-0.558-2.233-0.558-0.558 0-0.558-0.558-1.117-0.559 1.117 1.117 1.675 2.233 2.233 3.35 0 0.558 0.558 0.558 0.559 1.117 0.558 1.117 0 1.675-1.675 1.675-1.117 0-1.117 0-1.675 0.558 0 1.117 0 1.675 0 2.792 0 0.558 0 1.117-1.117 1.675 0 0-0.558 0-0.558 0.558-0.558 0.558-0.558 1.117 0 1.675 1.675 1.117 2.792 1.675 4.466 2.233 1.675 0 1.675 1.117 2.234 2.233 0.558 1.117 0 1.675-0.559 2.792-1.117 1.117-2.233 2.233-3.35 3.35-1.675 0.558-2.792 2.233-4.466 2.233-1.117 0-2.233-0.558-2.792-1.675-0.558-2.792-0.558-5.025 0.559-7.816 0-0.558 0.558-1.117 0-1.675-5.025 0-5.025-1.117-5.025-1.675 0-1.117 0.558-1.675 0.558-2.792 0.558-1.117 0-1.675-1.675-2.233-0.558 0-1.117 0-1.675 0-0.558 0-0.558-0.558-1.675-0.558 1.117-0.558 1.675-0.558 2.792-1.117-0.558-2.233-1.117-3.908-2.792-5.025-0.558-0.558-1.117-1.117-1.116-2.233 0-1.675-1.117-2.792-1.675-3.908-1.117-1.675-3.35-2.233-5.025-2.233-1.675-0.558-2.792-0.558-4.467-1.117-1.675-0.558-3.35-2.233-5.024-2.792-0.558-0.558-1.117-1.117-2.234-1.674-2.233-1.117-3.908-2.792-5.583-4.467-1.117-0.558-1.675-1.675-2.791-2.233-1.117-1.117-1.675-2.233-2.792-2.792-1.117-1.117-2.233-2.233-3.908-3.35-1.675-1.117-2.792-2.792-4.467-4.466-1.117-1.675-2.792-2.792-4.466-3.908-0.558 0-1.117 0-1.675 0-0.558 0-1.117 0.558-1.675 0.558-1.675 0.558-2.792 1.675-4.467 2.233 0.558-0.558 0.558-0.558 0-1.675-0.558-0.558-1.117-1.117-1.674-1.116-1.117 0-2.233 0-3.35 0-2.233 0-4.467 0.558-6.7 0.558-1.675 0-3.908 0.558-5.583 1.117 0.558 1.117 0.558 1.675 1.116 2.791-1.117 0.558-2.233 0.558-3.35 0.558-0.558 0-1.675 0.558-2.233 1.117-0.558 0-0.558 0.558-1.116 0-1.117-0.558-2.233 0-3.35 0.558h-0.559c0 0 0-0.558 0.559-0.558 0.558-0.558 1.117-1.117 1.675-1.675 0.558-0.558 1.117-0.558 2.233-1.117-0.558-0.558-0.558-1.117-0.558-1.116-0.558-0.558-1.117-0.558-1.675 0-0.558 0.558-1.117 1.117-1.675 1.675-0.558 0.558-1.117 0.558-1.675 0-0.558-0.558-0.558-1.117 0-1.675 0-0.558 0.558-1.117 1.116-1.675 0.558-0.558 0.558-1.117 1.117-1.675-1.117-1.117-1.675-2.233-2.792-2.792-1.675-1.117-3.35-2.792-4.466-4.466-1.117-2.233-2.792-3.908-5.025-5.025-0.558-0.558-1.117-1.117-1.675-1.675-0.558-0.558-0.558-0.558-1.116-1.117-1.675 0.558-2.792 1.675-4.467 2.234-0.558 0-0.558 0.558-1.117 1.116-0.558 1.117-1.675 1.117-2.791 1.117-0.558 0-1.117-0.558-0.558-1.117 0.558-1.117 1.117-2.233 2.791-1.675 0 0 0.558 0 0.558-0.558 1.117-1.117 2.233-2.792 3.909-3.908-0.558-1.675-1.675-2.792-2.234-3.908-0.558-0.558-0.558-1.117-0.558-2.234 0-0.558 0-0.558-0.558-1.116 0 0-0.558 0-1.117 0.558-0.558 0.558-1.675 1.117-2.791 0 0-0.558 0-1.117 0.558-1.675l0.558-0.558c1.675-0.558 1.675-2.233 1.675-3.908v-0.559c-0.558-1.117-0.558-1.675 0.558-2.791 1.675-1.117 3.35-3.35 3.909-5.025 0.558-1.117 1.675-1.675 2.791-2.792 1.117-1.117 2.233-2.233 2.792-3.908h0.558c2.233 0.558 2.792-1.117 3.908-2.791 0-0.558 0-1.117 0.559-1.117 1.117-1.117 1.117-2.233 0.558-3.908 0-0.558-0.558-1.675-0.558-2.233 0-0.558 0-0.558-0.559-1.117-1.675-1.117-1.675-2.233 0-3.35 1.117-0.558 1.117-1.675 1.675-2.233 0.558-1.117 0.558-2.233 0.559-3.908-0.558-1.675-0.558-3.908-1.117-5.583-0.558-2.233-1.117-5.025-1.675-7.259 0-0.558 0-0.558 0-1.116 0-1.675 0-2.792-0.558-4.467-0.558-0.558-0.558-1.675-0.559-2.233-0.558-1.675-1.117-2.792-2.791-3.35-1.675-1.117-3.908-1.675-5.583-2.791-0.558-0.558-1.117 0-1.675 0.558-0.558 1.117-1.675 2.233-2.234 3.35-0.558 0.558-1.117 1.675-1.675 2.791-1.117 1.117-3.35 2.233-5.024 0.559-0.558-1.117-1.117-1.675 0-2.792 1.117-1.675 2.233-3.35 3.908-4.466 0.558-0.558 1.117-1.675 1.675-2.234 0.558-1.117 0.558-2.233 0.558-3.35-0.558-2.233-1.117-4.467-1.117-7.258 0-2.792 0-5.025 0.559-7.816 0.558-1.117 0.558-2.792 1.116-3.908 0-0.558 0.558-1.675 1.117-2.233 1.117-1.117 2.233-2.233 2.792-3.909 0.558-1.675 1.675-3.35 1.675-5.024 0-0.558 0.558-1.117 0.558-1.675 0-0.558 0.558-1.675 0.558-2.234-0.558-1.675 0-2.792 0.558-3.908 0.558-1.117 1.117-2.792 1.675-3.908 1.117-2.233 1.117-5.025 3.35-7.258 0.558-1.117 1.117-2.233 1.675-3.35 0.558-2.233 1.675-3.908 2.792-5.583 0.558-0.558 0.558-0.558 0.558-1.117 0.558-1.675 1.675-3.35 2.792-5.025 1.117-1.675 1.117-3.35 1.675-5.024 0-0.558 0-1.117 0.558-1.675 1.675-1.675 1.117-3.908 0.558-6.142-1.117-2.792-1.675-5.583-1.116-8.374 0-0.558 0-1.117 0.558-1.117 0.558-1.117 0.558-1.675 1.117-2.792v-0.558c1.117-1.117 2.233-2.792 3.908-3.35 2.233-1.117 4.467-1.675 7.258-2.233 2.233 0 4.467-1.117 6.141-3.35 0-0.558 0.558-0.558 1.117-1.117l0.558-0.558c0.558-1.117 1.117-1.675 1.675-2.233 1.117-1.117 2.233-2.792 3.35-3.908 1.117-1.117 2.233-2.792 3.908-4.467l0.559-0.558c1.117-1.117 2.233-2.233 3.349-2.792 1.117-1.117 2.233-2.233 3.35-3.35 1.117-1.117 1.675-2.233 2.792-3.35 1.117-0.558 2.233-1.675 3.35-2.791 1.117-1.117 2.233-2.233 2.791-2.792 1.117-1.117 2.792-2.233 3.909-2.791 1.117-0.558 2.233-1.117 2.791-2.792 0.558-1.675 1.117-2.792 1.675-4.466 0-1.117 0.558-2.233 1.117-3.35 0.558 0 1.117 0 2.233-0.558-0.558-0.558-1.117-0.558-1.117-1.117 0-0.558 0.558-1.117 0.559-1.117 0-0.558 0.558-1.117 0.558-1.675 0 0 0.558 0 0.558-0.558 0 0 0.558 0 0.559-0.558-1.117 0.558-1.675 0-2.234-0.559 0.558 0.558 1.117 0.558 2.234 1.117 0 0 0.558 0 0.558-0.558 0-0.558 0-1.117 0-1.117 0 0-0.558 0-1.117 0-0.558 0-1.117 0.558-1.675 0.558zM182.097 295.292c0-0.558-0.558-0.558-0.559-1.117-0.558-1.117 0-1.675 0.559-2.233 0.558-0.558 1.117-0.558 2.233-0.558 1.117 0.558 1.675 1.117 1.675 2.233 0 0.558 0 1.675 0 2.233 0.558 2.233 0.558 2.233 2.791 2.233 1.117 0 2.233 0 3.35 0 2.233-0.558 4.467-1.675 6.7-2.233 2.233-0.558 4.467-1.117 6.7-1.675 0.558 0 1.117 0 2.233 0 2.233 0.558 3.908 0 5.583-1.117 0.558-0.558 1.675-0.558 2.233-1.116 1.117-0.558 2.233-0.558 3.35-1.117 2.792-1.675 5.583-2.792 7.817-4.466 1.675-1.117 3.35-2.233 5.024-3.35 1.675-1.117 3.35-2.233 5.025-3.35 1.117-0.558 2.792-1.675 3.908-2.792 2.233-1.675 3.908-3.35 6.142-4.466 1.117-0.558 1.675-1.117 2.233-1.675 1.117-0.558 1.675-1.675 2.792-2.233 0.558-0.558 1.117-1.117 2.233-1.675 0.558-0.558 0.558-0.558 0.558-1.117 1.675-1.117 3.35-3.35 4.467-5.025 1.117-1.117 2.233-2.233 3.35-3.908 1.675-1.675 2.792-3.908 4.466-6.141 1.117-1.117 2.233-2.792 2.792-3.909 1.117-2.233 2.233-4.467 3.908-6.141v-0.558c1.117-2.233 2.233-4.467 3.35-6.7 1.675-2.792 2.792-6.141 4.466-8.933 0.558-1.117 1.117-2.233 1.117-3.35 1.117-2.233 1.675-4.467 2.233-6.7 0-0.558 0-0.558 0.559-1.116 1.675-3.35 2.792-6.7 3.349-10.608 0.558-2.233 1.117-4.467 1.675-6.7 1.117-3.35 1.117-6.141 1.675-9.491 0.558-2.233 0.558-5.025 0.559-7.258 0.558-3.35 0.558-7.258 0-10.608 0-2.792-0.558-6.141-0.559-8.933 0-2.792-0.558-5.025-1.116-7.817-0.558-2.792-1.117-5.025-1.675-7.816-1.117-2.233-1.675-4.467-2.234-7.258-0.558-2.233-1.675-3.908-1.674-6.142 0-1.675-0.558-3.35-2.234-3.908-1.675-0.558-2.792-1.117-4.466-2.233-3.35-2.233-5.025-5.025-4.467-8.375 0-1.675 0.558-3.908 1.117-5.583 0.558-1.675 1.117-3.35 0-4.467-0.558-1.675-1.675-2.792-2.233-3.908-1.117-1.675-1.675-2.792-2.792-3.908-1.117-2.233-2.233-4.467-3.908-6.141-2.233-2.792-3.908-5.583-6.7-7.817l-0.558-0.558c-1.675-2.233-3.35-4.467-5.583-6.142-1.117-1.117-2.233-2.233-3.35-2.791-0.558-0.558-1.117-1.117-2.233-1.675-1.675-1.117-3.35-1.675-4.467-2.792-1.675-1.675-3.908-2.792-5.583-3.908 0 0-0.558 0-0.558-0.558-2.233-1.117-3.908-1.675-6.142-2.792-2.233-1.117-4.467-1.675-6.7-1.675-0.558 0-0.558 0-1.116 0-0.558-0.558-1.675-0.558-2.233-0.558-0.558 0-0.558 0-1.117 0-1.117-0.558-2.792 0-3.908 0-2.233 0.558-4.467 0.558-6.7-0.558-2.792-1.117-5.025-2.233-7.258-3.35-1.675-1.117-2.792-2.233-4.467-3.35-3.35-2.792-6.7-6.141-10.608-8.933 0.558-2.792-0.558-3.35-2.791-3.35-1.117 0-2.233 0.558-3.35 1.117-0.558 0.558-0.558 0.558-1.117 1.116-1.675 1.117-2.792 2.792-4.466 3.909-2.792 1.675-3.908 1.117-6.142 0-0.558-0.558-1.117-1.117-1.675-1.675-1.117-1.117-2.233-2.792-2.791-3.909-1.117-2.233-3.35-2.233-5.583-2.233-1.117 0-2.792 0.558-3.908 0.558-2.233 0-4.467 1.117-5.584 2.792-1.117 1.675-2.233 3.35-3.908 5.025-0.558 0.558-1.675 1.117-2.233 2.233-1.117 1.117-2.233 1.117-3.35 0-0.558-0.558-1.117-0.558-1.675-1.117-0.558 0.558-1.117 1.117-1.117 1.675-0.558 1.117-1.117 2.233-1.674 3.909-0.558 1.675-1.675 3.35-2.792 4.466-0.558 0.558-0.558 0.558-1.117 1.117-0.558 1.117-2.233 1.675-3.35 1.675-1.117 1.117-2.233 2.792-2.791 3.908-0.558 1.117-1.117 2.233-1.675 3.908-0.558 0.558-0.558 1.675-1.117 2.233-0.558 1.117-0.558 1.675-0.558 2.792 0.558 1.675-0.558 2.233-2.233 2.791-1.117 0-1.117 0-1.675 1.117 0 1.675 0.558 2.792 1.116 4.467 0.558 0.558 1.117 1.675 1.117 2.233 0 1.117 0.558 1.675 1.675 2.233 0.558 0.558 1.117 1.117 1.675 1.117 0.558 0 0.558 0.558 1.117 0.558 0.558 0.558 1.117 0 1.116-0.558 0.558-1.675 1.117-3.35 1.117-5.025 0.558-2.233 0.558-3.908 1.116-6.142 0.558-1.117 1.117-1.675 1.675-2.233 0 0 0.558 0 1.117 0v0.559c-0.558 2.792-1.675 6.141-2.233 8.933-0.558 1.117-0.558 2.233-1.117 3.349 0 0.558-0.558 1.117-1.116 1.117-1.117 0.558-2.233 1.117-3.35 1.117-0.558 0-1.117 0-1.675 0-1.117-0.558-2.233-1.675-3.35-2.234-0.558-0.558-1.117-1.117-1.675-1.674-0.558-1.117-1.117-2.233-1.675-3.35-0.558-1.117-1.117-1.675-2.233-2.234-0.558-0.558-1.117-0.558-1.675-1.116-1.117-1.117-2.233-1.675-3.908-1.675-0.558 0-1.675 0-2.234 0-0.558 0-1.675 0.558-2.233 1.116-1.117 0.558-1.675 0.558-2.791 0-2.792-1.117-5.583-0.558-8.375 0.559-1.117 0.558-2.233 1.117-3.35 1.116-2.792 0-5.025 0-7.816 0-2.792 0-5.025-0.558-7.817-1.116-1.117 0-2.233 0-3.35 0-2.233 0.558-2.792 2.233-2.233 4.466 0.558 2.233 1.117 5.025 1.117 7.258 0 1.675 0 3.35 0 5.025 0 1.117 0 1.675 0 2.792 0 1.675-0.558 3.35-0.559 5.025-0.558 3.35-2.233 6.141-4.466 8.374-1.675 1.675-3.908 3.35-6.142 3.908-1.117 0.558-2.233 1.117-3.908 1.675-2.792 1.117-5.025 3.35-6.7 6.142-0.558 1.117-1.117 2.233-1.674 3.35-1.117 1.675-1.675 2.792-2.792 4.466-0.558 1.117-1.675 2.233-2.233 3.35-0.558 1.117-1.675 1.675-1.675 2.792-1.117 2.233-1.675 4.467-2.792 6.699-0.558 1.117-0.558 2.792-1.116 3.909-1.117 2.233-1.117 4.467-1.117 7.258 0 0.558 0 1.117 0 2.233 0 2.792-0.558 6.141-0.558 8.933 0 2.792 0 5.583 0.558 8.375 0 1.117 0 2.792 0 3.908 0 2.233 0.558 5.025 0.558 7.258 0 2.233 0 5.025 1.117 7.258v0.558c0.558 2.233 0.558 4.467 1.116 6.7 0 0.558 0 1.117 0.559 1.675 1.117 3.35 1.675 6.141 2.791 9.491 0.558 2.233 1.675 4.467 2.234 6.7 0.558 2.233 2.792 4.467 3.349 7.258v0c1.675 3.35 3.35 6.7 5.584 10.05 0.558 1.117 1.675 2.233 2.233 3.35 1.117 1.675 1.675 3.35 2.791 4.466 0.558 1.117 1.675 2.233 2.234 2.792 0.558 1.117 1.117 2.233 2.233 3.35 1.117 1.117 2.233 2.792 3.35 3.908 1.675 2.792 3.908 5.025 6.141 6.7 1.117 1.117 2.233 1.675 3.35 2.791 0.558 0.558 1.117 0.558 1.117 1.117 0.558 0.558 1.117 1.117 2.233 1.675 4.467 2.233 7.816 5.583 11.725 8.933 1.675 1.675 3.35 3.35 5.583 4.466 2.233 1.675 3.908 3.35 6.7 3.908 0 0 0.558 0 0.558 0.559 1.117 1.117 2.792 1.675 3.908 2.233 2.233 1.117 5.025 2.233 7.258 3.35 0.558 0.558 1.675 0.558 2.233 1.117 1.675 0.558 3.35 1.117 5.025 1.674 1.675 0.558 2.792 1.117 4.467 1.117h0.558c1.117 0.558 1.675 0.558 2.792 0 0.558 0 1.117 0 1.116 0.558 0 0.558 0.558 0.558 1.117 0.559 0.558 0 1.117 0 2.233 0 0.558-0.558 0.558-1.117 1.117-2.234 0.558 0.558 1.117 0.558 1.116 0.559 0.558 1.117 1.675 1.117 2.792 1.116h0.558c1.117 0 1.675 0 2.233-0.558 0-0.558 1.117-0.558 1.675-0.558 1.675 0.558 3.35 0.558 5.025 1.116 1.117 0.558 2.792 0.558 3.35-0.558 0.558-0.558 1.117-1.117 2.233-0.558 1.117 0.558 1.675 0.558 2.792 0 0.558 0 1.117 0 1.117 0 1.675 0.558 2.792 0.558 4.466 1.116 2.233 0.558 2.233 0.558 3.908-1.116 0.558-0.558 1.675-0.558 2.233 0 0.558 1.117 0.558 1.675 0.559 2.791 0.558 0 0.558 0 1.116-0.558 0-1.117 0.558-1.117 1.675-1.675 0.558 0.558 0.558 0.558 1.117 0.558 1.117 1.117 1.675 1.117 2.233-0.558 0-0.558 0-1.117 0.559-1.116 0.558 0 1.117 0.558 1.116 0.558 0.558 1.117 1.675 1.675 2.233 2.791 1.117 1.117 2.792 1.117 3.35 0 0.558-0.558 1.117-0.558 1.675-0.558 0-0.558 0-1.117 0-1.675 1.675 1.117 1.117 1.117 0.559 1.117zM89.417 34.559c1.675 0.558 2.792 0.558 3.349-0.558-1.117 0.558-2.233-0.558-3.349 0.558z" fill="#d51d34" fill-rule="nonzero" stroke="none" stroke-width="1" stroke-linecap="butt" stroke-linejoin="miter" stroke-miterlimit="10" stroke-dasharray="" stroke-dashoffset="0" font-family="none" font-weight="none" font-size="none" text-anchor="none" style="mix-blend-mode: normal" data-fill-palette-color="tertiary"></path></g><g transform="matrix(1,0,0,1,64,96.95636863417883)"><svg viewBox="0 0 192 166.08726273164234" height="166.08726273164234" width="192"><g><svg viewBox="0 0 192 166.08726273164234" height="166.08726273164234" width="192"><g><svg viewBox="0 0 192 166.08726273164234" height="166.08726273164234" width="192"><g id="textblocktransform"><svg viewBox="0 0 192 166.08726273164234" height="166.08726273164234" width="192" id="textblock"><g><svg viewBox="0 0 192 166.08726273164234" height="166.08726273164234" width="192"><g transform="matrix(1,0,0,1,0,0)"><svg width="192" viewBox="1.4876388777819995 -38.31845893446 47.796736122218 41.34845893446" height="166.08726273164234" data-palette-color="#d51d34"><path d="M42.29-37.55L42.29-37.55Q41.7-37.55 41.19-37.62 40.67-37.7 40.09-37.6L40.09-37.6Q40.04-38.04 40.19-38.04 40.33-38.04 40.43-38.13L40.43-38.13Q41.94-38.48 43.38-38.18 44.82-37.89 46-37.3L46-37.3Q46.04-37.11 46.22-37.01 46.39-36.91 46.48-36.77L46.48-36.77Q46.73-36.52 46.9-36.16 47.07-35.79 47.27-35.5L47.27-35.5Q47.36-35.3 47.51-35.18 47.66-35.06 47.56-34.81L47.56-34.81Q47.27-34.67 47.02-34.81 46.78-34.96 46.53-35.21 46.29-35.45 46.07-35.67 45.85-35.89 45.56-35.89L45.56-35.89Q45.51-36.08 45.21-36.38L45.21-36.38Q44.87-36.62 44.65-36.69 44.43-36.77 44.24-36.87L44.24-36.87Q44.09-36.96 43.97-37.04 43.85-37.11 43.75-37.16L43.75-37.16Q43.55-37.26 43.38-37.23 43.21-37.21 42.97-37.3L42.97-37.3Q42.82-37.4 42.68-37.45 42.53-37.5 42.29-37.55ZM48-23.68L48-23.68Q48.1-23.34 48.39-23.19 48.68-23.05 48.93-22.75L48.93-22.75Q49.56-21.97 49.07-21.14L49.07-21.14Q48.83-20.41 48.75-19.7 48.68-18.99 48.39-18.31L48.39-18.31Q48.14-17.77 47.75-17.31 47.36-16.85 47.17-16.31L47.17-16.31Q46.73-16.06 46.58-15.48L46.58-15.48Q46.34-15.23 46.12-15.11 45.9-14.99 45.56-14.79L45.56-14.79Q45.41-14.7 45.29-14.62 45.17-14.55 45.02-14.5L45.02-14.5Q44.78-14.4 44.58-14.45 44.38-14.5 44.14-14.4L44.14-14.4Q43.99-14.4 43.8-14.26 43.6-14.11 43.51-14.01L43.51-14.01Q43.26-13.77 43.07-13.38 42.87-12.99 42.48-12.84L42.48-12.84Q41.8-12.7 41.16-12.6 40.53-12.5 39.7-12.45L39.7-12.45Q39.26-12.45 38.67-12.43 38.09-12.4 37.55-12.3L37.55-12.3Q36.28-12.3 35.25-12.21 34.23-12.11 33.11-12.06L33.11-12.06Q32.37-12.01 31.74-11.99 31.1-11.96 30.37-11.82L30.37-11.82Q30.22-11.77 30.08-11.72 29.93-11.67 29.83-11.67L29.83-11.67Q29.44-11.62 29.05-11.65 28.66-11.67 28.27-11.67L28.27-11.67Q27.98-11.67 27.76-11.74 27.54-11.82 27.29-11.82L27.29-11.82Q27.05-11.82 26.76-11.77 26.46-11.72 26.17-11.67L26.17-11.67Q25.93-11.67 25.66-11.69 25.39-11.72 25.15-11.77L25.15-11.77Q24.71-11.82 24.22-11.74 23.73-11.67 23.29-11.77L23.29-11.77Q22.9-11.77 22.63-11.69 22.36-11.62 22.07-11.67L22.07-11.67Q21.68-10.74 21.68-10.16 21.68-9.57 21.44-9.13L21.44-9.13Q21.48-8.89 21.68-8.86 21.88-8.84 22.02-8.64L22.02-8.64Q22.12-8.4 22.07-8.13 22.02-7.86 22.07-7.57L22.07-7.57Q22.12-7.37 22.14-7.18 22.17-6.98 22.17-6.74L22.17-6.74Q22.22-5.47 22.31-4.17 22.41-2.88 22.46-1.86L22.46-1.86Q22.46-1.51 22.34-1.29 22.22-1.07 22.05-0.9 21.88-0.73 21.68-0.56 21.48-0.39 21.44-0.1L21.44-0.1Q21.14 0.15 20.83 0.42 20.51 0.68 20.12 0.78L20.12 0.78Q19.73 0.88 19.31 0.85 18.9 0.83 18.51 0.83L18.51 0.83Q18.02 0.83 17.5 0.88 16.99 0.93 16.46 0.93L16.46 0.93Q16.16 0.93 15.82 0.85 15.48 0.78 15.19 0.78L15.19 0.78Q14.65 0.83 14.16 0.83 13.67 0.83 13.13 0.68L13.13 0.68Q12.94 0.49 12.74 0.42 12.55 0.34 12.4 0.2L12.4 0.2Q12.16 0 11.91-0.2 11.67-0.39 11.23-0.49L11.23-0.49Q10.94-0.49 10.64-0.44 10.35-0.39 10.11-0.29L10.11-0.29Q9.47-0.2 9.25-0.07 9.03 0.05 8.79 0.15L8.79 0.15Q8.4 0.34 8.11 0.59 7.81 0.83 7.23 0.93L7.23 0.93Q6.98 0.98 6.52 0.78 6.05 0.59 5.91 0.39L5.91 0.39Q5.66 0.15 5.62-0.37 5.57-0.88 5.47-1.42L5.47-1.42Q5.37-1.76 5.32-2.05 5.27-2.34 5.18-2.59L5.18-2.59Q5.13-2.93 5.22-3.25 5.32-3.56 5.37-3.81L5.37-3.81Q5.37-4.25 5.37-4.76 5.37-5.27 5.27-5.76L5.27-5.76Q5.27-6.01 5.18-6.23 5.08-6.45 5.08-6.69L5.08-6.69Q5.08-6.84 5.1-7.01 5.13-7.18 5.13-7.37L5.13-7.37Q5.13-7.76 5.03-8.18 4.93-8.59 4.98-8.94L4.98-8.94Q5.03-9.33 5.3-9.57 5.57-9.81 5.66-10.06L5.66-10.06Q5.71-10.25 5.71-10.55 5.71-10.84 5.71-11.08L5.71-11.08Q5.71-12.21 5.18-12.84L5.18-12.84Q5.08-12.94 4.98-13.01 4.88-13.09 4.79-13.23L4.79-13.23Q4.54-13.67 4.69-14.26 4.83-14.84 4.88-15.23L4.88-15.23Q4.93-15.63 4.93-15.99 4.93-16.36 5.08-16.6L5.08-16.6Q5.27-16.85 5.47-17.02 5.66-17.19 5.66-17.43L5.66-17.43Q5.66-17.82 5.37-17.99 5.08-18.16 4.98-18.41L4.98-18.41Q4.83-18.7 4.83-19.09 4.83-19.48 4.83-20.02L4.83-20.02Q4.79-20.85 4.71-21.75 4.64-22.66 4.64-23.39L4.64-23.39Q4.64-24.9 4.59-26.37 4.54-27.83 4.3-29.05L4.3-29.05Q4.44-30.32 4.22-31.49 4-32.67 4.2-33.98L4.2-33.98Q4.3-34.13 4.49-34.52L4.49-34.52Q4.83-34.67 5.15-34.91 5.47-35.16 6.01-35.25L6.01-35.25Q7.28-35.21 8.03-35.25 8.79-35.3 9.47-35.16L9.47-35.16Q9.62-35.01 9.67-34.86 9.72-34.72 9.86-34.62L9.86-34.62Q10.06-34.47 10.64-34.33 11.23-34.18 11.62-34.28L11.62-34.28Q11.96-34.38 12.26-34.62 12.55-34.86 12.79-34.96L12.79-34.96Q13.38-35.11 13.55-35.18 13.72-35.25 13.87-35.35L13.87-35.35Q14.16-35.45 14.48-35.45 14.79-35.45 15.14-35.5L15.14-35.5Q15.33-35.55 15.82-35.64L15.82-35.64Q16.21-35.64 16.55-35.62 16.89-35.6 17.24-35.64L17.24-35.64Q17.48-35.69 17.85-35.67 18.21-35.64 18.51-35.69L18.51-35.69Q18.65-35.74 18.77-35.79 18.9-35.84 19.04-35.84L19.04-35.84Q19.63-35.89 20.19-35.82 20.75-35.74 21.29-35.79L21.29-35.79Q21.53-35.79 21.83-35.77 22.12-35.74 22.36-35.74L22.36-35.74Q23.34-35.79 24.41-35.96 25.49-36.13 26.46-36.13L26.46-36.13Q27.34-36.13 28.15-36.11 28.96-36.08 29.74-36.23L29.74-36.23Q29.88-36.28 30.27-36.38L30.27-36.38Q30.66-36.47 31.03-36.47 31.4-36.47 31.79-36.57L31.79-36.57Q31.88-36.62 32.06-36.6 32.23-36.57 32.47-36.57L32.47-36.57Q32.76-36.62 33.28-36.62 33.79-36.62 34.08-36.52L34.08-36.52Q34.28-36.43 34.42-36.3 34.57-36.18 34.72-36.08L34.72-36.08Q34.96-35.94 35.57-35.79 36.18-35.64 36.52-35.74L36.52-35.74Q36.87-35.84 37.08-36.08 37.3-36.33 37.65-36.43L37.65-36.43Q37.99-36.52 38.21-36.43 38.43-36.33 38.67-36.57L38.67-36.57Q39.16-36.43 39.65-36.4 40.14-36.38 40.67-36.43L40.67-36.43Q41.06-36.43 41.53-36.35 41.99-36.28 42.38-36.18L42.38-36.18Q42.82-36.08 43.19-35.99 43.55-35.89 43.85-35.74L43.85-35.74Q44.04-35.64 44.19-35.5 44.34-35.35 44.58-35.3L44.58-35.3Q44.87-34.86 45.24-34.52 45.61-34.18 46-33.84L46-33.84Q46.24-33.25 46.53-32.71 46.83-32.18 47.36-31.74L47.36-31.74Q47.46-31.49 47.56-31.23 47.66-30.96 47.85-30.81L47.85-30.81Q48-29.83 48.39-28.93 48.78-28.03 48.68-26.95L48.68-26.95Q48.63-26.71 48.58-26.46 48.54-26.22 48.63-25.93L48.63-25.93Q48.39-25.63 48.39-25.12 48.39-24.61 48.29-24.17L48.29-24.17Q48.1-24.12 48.05-23.95 48-23.78 48-23.68ZM6.84-27.73L6.84-27.73Q7.08-27.83 7.13-28.13 7.18-28.42 7.32-28.61L7.32-28.61Q6.79-28.86 6.69-28.81 6.59-28.76 6.49-28.86L6.49-28.86Q6.3-28.71 6.25-28.49 6.2-28.27 6.23-28.05 6.25-27.83 6.42-27.73 6.59-27.64 6.84-27.73ZM8.25-32.37L8.25-32.37Q8.3-32.62 8.35-32.81 8.4-33.01 8.3-33.15L8.3-33.15Q8.2-33.3 7.89-33.45 7.57-33.59 7.42-33.59L7.42-33.59Q7.28-33.59 6.93-33.5 6.59-33.4 6.49-33.3L6.49-33.3Q6.2-33.15 6.13-32.89 6.05-32.62 6.1-32.28 6.15-31.93 6.23-31.57 6.3-31.2 6.25-30.86L6.25-30.86Q6.4-30.76 6.47-30.62 6.54-30.47 6.74-30.47L6.74-30.47Q6.93-30.47 7.03-30.59 7.13-30.71 7.2-30.93 7.28-31.15 7.32-31.37 7.37-31.59 7.52-31.74L7.52-31.74Q7.76-31.98 7.96-32.06 8.15-32.13 8.25-32.37ZM15.72-0.73L15.72-0.73Q16.11-0.73 16.26-1.03 16.41-1.32 16.36-1.66L16.36-1.66Q16.11-1.86 15.94-1.76 15.77-1.66 15.53-1.56L15.53-1.56Q15.43-1.37 15.45-1.1 15.48-0.83 15.72-0.73ZM35.11-23.29L34.81-23.73Q34.57-23.73 34.4-23.46 34.23-23.19 34.28-22.95L34.28-22.95Q34.52-22.85 34.81-22.95 35.11-23.05 35.11-23.29L35.11-23.29ZM20.51-1.61L20.51-1.61Q20.8-1.95 20.73-2.59 20.65-3.22 20.51-3.71L20.51-3.71Q20.17-3.86 19.97-3.88 19.78-3.91 19.53-3.61L19.53-3.61Q19.38-3.42 19.38-3.13 19.38-2.83 19.43-2.49L19.43-2.49Q19.29-2.29 19.17-2.08 19.04-1.86 18.8-1.76L18.8-1.76Q18.6-1.66 18.41-1.66 18.21-1.66 18.12-1.56L18.12-1.56Q17.87-1.32 18.04-1.05 18.21-0.78 18.46-0.73L18.46-0.73Q18.7-0.68 18.97-0.78 19.24-0.88 19.43-0.98L19.43-0.98Q20.07-1.17 20.19-1.37 20.31-1.56 20.51-1.61ZM31.88-20.31L31.88-20.31Q32.42-20.85 32.32-21.73 32.23-22.61 32.32-23.44L32.32-23.44Q32.37-23.68 32.37-23.97 32.37-24.27 32.42-24.51L32.42-24.51Q32.47-24.95 32.62-25.42 32.76-25.88 32.71-26.27L32.71-26.27Q32.71-26.51 32.57-26.88 32.42-27.25 32.32-27.49L32.32-27.49Q32.08-27.88 31.69-28.34 31.3-28.81 30.86-29L30.86-29Q30.47-29.2 29.83-29.15 29.2-29.1 28.61-29.15L28.61-29.15Q27.59-29.25 26.93-29.2 26.27-29.15 25.59-29.05L25.59-29.05Q24.9-28.96 24.19-28.83 23.49-28.71 22.95-28.71L22.95-28.71Q22.8-28.71 22.66-28.74 22.51-28.76 22.36-28.76L22.36-28.76Q22.07-28.71 21.8-28.61 21.53-28.52 21.19-28.52L21.19-28.52Q21-28.13 21.09-27.66 21.19-27.2 21.19-26.81L21.19-26.81Q21.24-26.12 21.24-25.44 21.24-24.76 21.34-24.07L21.34-24.07Q21.34-23.73 21.34-23.44 21.34-23.14 21.44-22.95L21.44-22.95Q21.53-22.36 21.36-22.34 21.19-22.31 21.04-22.17L21.04-22.17Q20.95-22.07 20.8-21.61 20.65-21.14 20.8-20.85L20.8-20.85Q21.24-20.31 21.24-20.07 21.24-19.82 21.22-19.56 21.19-19.29 21.19-19.02 21.19-18.75 21.29-18.46L21.29-18.46Q22.71-18.51 24.02-18.53 25.34-18.55 26.76-18.65L26.76-18.65Q27.05-18.65 27.25-18.73 27.44-18.8 27.69-18.8L27.69-18.8Q28.08-18.8 28.49-18.8 28.91-18.8 29.25-18.9L29.25-18.9Q29.93-19.04 30.71-19.46 31.49-19.87 31.88-20.31ZM35.16-18.46L35.16-18.46Q35.3-18.55 35.42-19.14 35.55-19.73 35.5-20.17L35.5-20.17Q35.45-20.65 35.25-20.95 35.06-21.24 34.57-21.14L34.57-21.14Q34.47-20.8 34.4-20.51 34.33-20.21 34.33-19.87L34.33-19.87Q34.28-18.99 33.64-18.7 33.01-18.41 32.62-18.16L32.62-18.16Q33.11-17.43 33.59-17.7 34.08-17.97 34.42-18.12L34.42-18.12Q34.62-18.21 34.81-18.26 35.01-18.31 35.16-18.46ZM42.82-32.42L42.82-32.42Q43.46-32.71 43.12-33.5L43.12-33.5Q43.02-33.64 42.85-33.74 42.68-33.84 42.63-34.03L42.63-34.03Q41.99-34.52 41.19-34.5 40.38-34.47 40.14-33.94L40.14-33.94Q40.19-33.74 40.23-33.57 40.28-33.4 40.43-33.3L40.43-33.3Q40.67-33.35 40.8-33.33 40.92-33.3 41.16-33.3L41.16-33.3Q41.26-33.15 41.43-33.06 41.6-32.96 41.75-32.81L41.75-32.81Q41.85-32.71 41.92-32.59 41.99-32.47 42.14-32.42L42.14-32.42Q42.43-32.32 42.82-32.42ZM46.73-20.07L46.73-20.07Q47.07-20.9 46.83-21.73L46.83-21.73Q46.73-21.88 46.48-21.9 46.24-21.92 46.09-21.78L46.09-21.78Q45.9-21.63 45.73-21.02 45.56-20.41 45.51-20.17L45.51-20.17Q45.51-20.02 45.61-19.75 45.7-19.48 45.8-19.38L45.8-19.38Q46.14-19.04 46.39-19.41 46.63-19.78 46.73-20.07ZM2.88-25.93L2.88-25.93Q3.13-25.49 3.13-24.78 3.13-24.07 2.59-24.02L2.59-24.02Q2.34-24.02 2.25-24.15 2.15-24.27 1.9-24.32L1.9-24.32Q1.66-24.71 1.71-25.22 1.76-25.73 1.95-26.12L1.95-26.12Q2.05-26.81 2-27.47 1.95-28.13 1.9-28.81L1.9-28.81Q1.9-29.15 1.93-29.52 1.95-29.88 1.76-30.13L1.76-30.13Q1.95-30.66 1.86-31.3 1.76-31.93 1.64-32.54 1.51-33.15 1.49-33.76 1.46-34.38 1.81-34.91L1.81-34.91Q2-35.06 2.32-35.16 2.64-35.25 2.78-35.06L2.78-35.06Q2.54-34.77 2.56-34.69 2.59-34.62 2.54-34.57L2.54-34.57Q2.39-34.13 2.44-34.01 2.49-33.89 2.54-33.74L2.54-33.74Q2.64-33.45 2.64-33.11 2.64-32.76 2.73-32.52L2.73-32.52Q2.69-31.4 2.73-30.27L2.73-30.27Q2.83-29.2 2.88-28.1 2.93-27 2.88-25.93ZM49.22-33.15L49.22-33.15Q49.32-32.86 49.24-32.42 49.17-31.98 48.78-32.03L48.78-32.03Q48.49-32.08 48.22-32.62 47.95-33.15 47.85-33.54L47.85-33.54Q47.8-33.74 47.73-33.89 47.66-34.03 47.8-34.13L47.8-34.13Q48.05-34.18 48.58-33.81 49.12-33.45 49.22-33.15ZM25.1-28.22L25.1-28.22Q25.39-27.44 24.85-27.34 24.32-27.25 23.93-27.34L23.93-27.34Q23.54-27.54 23.58-27.78L23.58-27.78Q23.63-28.03 23.93-28.1 24.22-28.17 24.51-28.22L24.51-28.22Q24.66-28.22 24.83-28.25 25-28.27 25.1-28.22ZM29.93-28.17L29.93-28.17Q30.52-27.78 30.91-27 31.3-26.22 30.91-25.29L30.91-25.29Q30.66-25.24 30.59-25.32 30.52-25.39 30.37-25.44L30.37-25.44Q30.13-25.73 30.03-26.05 29.93-26.37 29.69-26.61L29.69-26.61Q29.44-26.81 29.17-26.93 28.91-27.05 28.81-27.39L28.81-27.39Q28.56-27.54 28.34-27.47 28.13-27.39 27.78-27.34L27.78-27.34Q27.59-27.34 27.42-27.39 27.25-27.44 27.05-27.44L27.05-27.44Q26.46-27.39 26.46-27.44 26.46-27.49 26.37-27.49L26.37-27.49Q26.22-27.78 26.68-28.05 27.15-28.32 27.54-28.32L27.54-28.32Q28.22-28.17 28.49-28.27 28.76-28.37 29-28.32L29-28.32Q29.25-28.32 29.49-28.3 29.74-28.27 29.93-28.17ZM48.29-15.82L48.29-15.82Q48.58-15.82 48.66-15.53 48.73-15.23 48.83-15.04L48.83-15.04Q48.73-14.84 48.63-14.7 48.54-14.55 48.29-14.55L48.29-14.55Q47.85-14.6 47.88-15.19 47.9-15.77 48.29-15.82ZM46.83-14.26L46.83-14.26Q46.97-14.36 47.14-14.18 47.31-14.01 47.41-13.92L47.41-13.92Q47.31-13.72 47.24-13.53 47.17-13.33 47.07-13.18L47.07-13.18Q46.24-12.11 44.82-11.67L44.82-11.67Q44.53-11.57 44.26-11.43 43.99-11.28 43.75-11.18L43.75-11.18Q43.31-11.04 42.8-10.96 42.29-10.89 41.89-10.74L41.89-10.74Q41.7-10.64 41.48-10.62 41.26-10.6 41.06-10.55L41.06-10.55Q40.04-10.35 38.87-10.23 37.7-10.11 36.87-10.5L36.87-10.5Q36.87-10.69 36.79-10.86 36.72-11.04 36.82-11.13L36.82-11.13Q37.21-11.04 37.65-11.21 38.09-11.38 38.48-11.13L38.48-11.13Q39.4-11.43 40.41-11.45 41.41-11.47 42.24-11.91L42.24-11.91Q43.16-11.96 43.82-12.43 44.48-12.89 45.07-13.38L45.07-13.38Q46.04-13.62 46.29-13.84 46.53-14.06 46.83-14.26ZM8.89 1.42L8.89 1.42Q9.52 1.17 10.23 1.17 10.94 1.17 11.04 1.95L11.04 1.95Q10.94 2.2 10.74 2.15 10.55 2.1 10.4 2.15L10.4 2.15Q10.16 2.2 10.03 2.25 9.91 2.29 9.67 2.34L9.67 2.34Q9.13 2.44 8.59 2.61 8.06 2.78 7.57 2.83L7.57 2.83Q7.18 2.83 6.84 2.81 6.49 2.78 6.1 2.88L6.1 2.88Q5.91 2.88 5.74 2.95 5.57 3.03 5.42 3.03L5.42 3.03Q5.18 2.98 4.96 2.86 4.74 2.73 4.49 2.78L4.49 2.78Q4.15 2.39 3.74 2.15 3.32 1.9 3.32 1.32L3.32 1.32Q3.27 0.73 3.52 0.17 3.76-0.39 3.61-0.98L3.61-0.98Q4-1.17 4.15-0.98L4.15-0.98Q4.15-0.54 4.22-0.22 4.3 0.1 4.39 0.49L4.39 0.49Q4.44 0.68 4.47 0.9 4.49 1.12 4.54 1.22L4.54 1.22Q4.64 1.51 5.1 1.81 5.57 2.1 5.91 2.15L5.91 2.15Q6.2 2.25 6.71 2.22 7.23 2.2 7.52 2.1L7.52 2.1Q7.86 2 8.2 1.78 8.54 1.56 8.89 1.42ZM22.8-0.05L22.8-0.05Q23.34 0.15 23.36 0.59 23.39 1.03 23.14 1.27L23.14 1.27Q22.9 1.46 22.56 1.46 22.22 1.46 21.92 1.37L21.92 1.37Q21.73 1.12 22 0.95 22.27 0.78 22.36 0.63L22.36 0.63Q22.56 0.44 22.63 0.27 22.71 0.1 22.8-0.05Z" opacity="1" transform="matrix(1,0,0,1,0,0)" fill="#d51d34" class="wordmark-text-0" data-fill-palette-color="primary" id="text-0"></path></svg></g></svg></g></svg></g></svg></g></svg></g></svg></g></svg></g><defs></defs></svg><rect width="320" height="360" fill="none" stroke="none" visibility="hidden"></rect></g></svg></g></svg>